<svg width="48" height="48" viewBox="0 0 48 48" fill="none" xmlns="http://www.w3.org/2000/svg">
<path d="M43.3125 21C43.9688 21 44.5781 21.1172 45.1406 21.3516C45.7031 21.5859 46.2031 21.9062 46.6406 22.3125C47.0781 22.7188 47.4063 23.2109 47.625 23.7891C47.8437 24.3672 47.9687 24.9844 48 25.6406C48 26.25 47.8828 26.8438 47.6484 27.4219C47.4141 28 47.0781 28.5078 46.6406 28.9453L29.8359 45.75L21 47.9531L23.2031 39.1172L40.0078 22.3359C40.4609 21.8828 40.9688 21.5469 41.5312 21.3281C42.0938 21.1094 42.6875 21 43.3125 21ZM45 25.6406C45 25.1406 44.8437 24.7422 44.5312 24.4453C44.2188 24.1484 43.8125 24 43.3125 24C43.0938 24 42.8828 24.0312 42.6797 24.0938C42.4766 24.1563 42.2969 24.2734 42.1406 24.4453L25.9219 40.6641L25.125 43.8281L28.2891 43.0312L44.5078 26.8359C44.8359 26.5078 45 26.1094 45 25.6406ZM6 3V45H17.8594L17.1328 48H3V0H29.1328L42 12.8672V17.3672C41.4219 17.4453 40.9063 17.5625 40.4531 17.7188C40 17.875 39.5156 18.1172 39 18.4453V15H27V3H6ZM30 5.13281V12H36.8672L30 5.13281ZM33 21V24H12V21H33ZM12 36V33H24.0234L21.0234 36H12ZM30.0234 27L27.0234 30H12V27H30.0234Z" fill="black"/>
</svg>
