<svg width="80" height="80" viewBox="0 0 80 80" fill="none" xmlns="http://www.w3.org/2000/svg">
<path d="M28.3333 50H51.6667M28.3333 60H40M31.6667 28.3333H48.3333M40 36.6667V20M63.3333 6.66666H16.6667C15.7826 6.66666 14.9348 7.01785 14.3097 7.64297C13.6845 8.26809 13.3333 9.11593 13.3333 9.99999V70C13.3333 70.884 13.6845 71.7319 14.3097 72.357C14.9348 72.9821 15.7826 73.3333 16.6667 73.3333H63.3333C64.2174 73.3333 65.0652 72.9821 65.6904 72.357C66.3155 71.7319 66.6667 70.884 66.6667 70V9.99999C66.6667 9.11593 66.3155 8.26809 65.6904 7.64297C65.0652 7.01785 64.2174 6.66666 63.3333 6.66666Z" stroke="black" stroke-width="4" stroke-linecap="round" stroke-linejoin="round"/>
</svg>
