<svg width="17" height="15" viewBox="0 0 17 15" fill="none" xmlns="http://www.w3.org/2000/svg">
<path d="M2.88685 6.5V6H2.34481V6.5H2.88685ZM2.88685 10.5H2.34481V11H2.88685V10.5ZM13.7276 6.5H14.2696V6H13.7276V6.5ZM13.7276 10.5V11H14.2696V10.5H13.7276ZM14.8116 3.5H15.3537V3.293L15.1954 3.146L14.8116 3.5ZM11.5594 0.5L11.9432 0.146L11.7838 0H11.5594V0.5ZM2.34481 6.5V10.5H3.42888V6.5H2.34481ZM2.88685 11H3.97092V10H2.88685V11ZM5.59703 9.5V7.5H4.51295V9.5H5.59703ZM3.97092 6H2.88685V7H3.97092V6ZM5.59703 7.5C5.59703 7.10218 5.4257 6.72064 5.12075 6.43934C4.8158 6.15804 4.40219 6 3.97092 6V7C4.11468 7 4.25254 7.05268 4.3542 7.14645C4.45585 7.24021 4.51295 7.36739 4.51295 7.5H5.59703ZM3.97092 11C4.40219 11 4.8158 10.842 5.12075 10.5607C5.4257 10.2794 5.59703 9.89782 5.59703 9.5H4.51295C4.51295 9.63261 4.45585 9.75979 4.3542 9.85355C4.25254 9.94732 4.11468 10 3.97092 10V11ZM6.6811 7.5V9.5H7.76517V7.5H6.6811ZM9.93331 9.5V7.5H8.84924V9.5H9.93331ZM9.93331 7.5C9.93331 7.10218 9.76199 6.72064 9.45703 6.43934C9.15208 6.15804 8.73847 6 8.3072 6V7C8.45096 7 8.58883 7.05268 8.69048 7.14645C8.79213 7.24021 8.84924 7.36739 8.84924 7.5H9.93331ZM8.3072 11C8.73847 11 9.15208 10.842 9.45703 10.5607C9.76199 10.2794 9.93331 9.89782 9.93331 9.5H8.84924C8.84924 9.63261 8.79213 9.75979 8.69048 9.85355C8.58883 9.94732 8.45096 10 8.3072 10V11ZM6.6811 9.5C6.6811 9.89782 6.85242 10.2794 7.15737 10.5607C7.46233 10.842 7.87593 11 8.3072 11V10C8.16345 10 8.02558 9.94732 7.92393 9.85355C7.82227 9.75979 7.76517 9.63261 7.76517 9.5H6.6811ZM7.76517 7.5C7.76517 7.36739 7.82227 7.24021 7.92393 7.14645C8.02558 7.05268 8.16345 7 8.3072 7V6C7.87593 6 7.46233 6.15804 7.15737 6.43934C6.85242 6.72064 6.6811 7.10218 6.6811 7.5H7.76517ZM11.0174 6V11H12.1015V6H11.0174ZM11.5594 7H13.7276V6H11.5594V7ZM13.1855 6.5V8H14.2696V6.5H13.1855ZM11.5594 11H13.7276V10H11.5594V11ZM14.2696 10.5V9H13.1855V10.5H14.2696ZM2.34481 5V1.5H1.26074V5H2.34481ZM14.2696 3.5V5H15.3537V3.5H14.2696ZM2.88685 1H11.5594V0H2.88685V1ZM11.1757 0.854L14.4279 3.854L15.1954 3.146L11.9432 0.146L11.1757 0.854ZM2.34481 1.5C2.34481 1.36739 2.40192 1.24021 2.50357 1.14645C2.60522 1.05268 2.74309 1 2.88685 1V0C2.45558 0 2.04197 0.158035 1.73702 0.43934C1.43206 0.720644 1.26074 1.10218 1.26074 1.5H2.34481ZM1.26074 12V13.5H2.34481V12H1.26074ZM2.88685 15H13.7276V14H2.88685V15ZM15.3537 13.5V12H14.2696V13.5H15.3537ZM13.7276 15C14.1588 15 14.5724 14.842 14.8774 14.5607C15.1823 14.2794 15.3537 13.8978 15.3537 13.5H14.2696C14.2696 13.6326 14.2125 13.7598 14.1108 13.8536C14.0092 13.9473 13.8713 14 13.7276 14V15ZM1.26074 13.5C1.26074 13.8978 1.43206 14.2794 1.73702 14.5607C2.04197 14.842 2.45558 15 2.88685 15V14C2.74309 14 2.60522 13.9473 2.50357 13.8536C2.40192 13.7598 2.34481 13.6326 2.34481 13.5H1.26074Z" fill="black"/>
</svg>
