<svg width="17" height="15" viewBox="0 0 17 15" fill="none" xmlns="http://www.w3.org/2000/svg">
<path d="M3.22376 6.5V6H2.68173V6.5H3.22376ZM7.56005 6.5V6H7.01801V6.5H7.56005ZM7.56005 10.5H7.01801V11H7.56005V10.5ZM15.1485 3.5H15.6906V3.293L15.5323 3.146L15.1485 3.5ZM11.8963 0.5L12.2801 0.146L12.1207 0H11.8963V0.5ZM3.22376 7H4.30783V6H3.22376V7ZM3.7658 11V8.5H2.68173V11H3.7658ZM3.7658 8.5V6.5H2.68173V8.5H3.7658ZM4.30783 8H3.22376V9H4.30783V8ZM4.84987 7.5C4.84987 7.63261 4.79276 7.75979 4.69111 7.85355C4.58946 7.94732 4.45159 8 4.30783 8V9C4.7391 9 5.15271 8.84196 5.45766 8.56066C5.76262 8.27936 5.93394 7.89782 5.93394 7.5H4.84987ZM4.30783 7C4.45159 7 4.58946 7.05268 4.69111 7.14645C4.79276 7.24021 4.84987 7.36739 4.84987 7.5H5.93394C5.93394 7.10218 5.76262 6.72064 5.45766 6.43934C5.15271 6.15804 4.7391 6 4.30783 6V7ZM7.01801 6.5V10.5H8.10208V6.5H7.01801ZM7.56005 11H8.64412V10H7.56005V11ZM10.2702 9.5V7.5H9.18615V9.5H10.2702ZM8.64412 6H7.56005V7H8.64412V6ZM10.2702 7.5C10.2702 7.10218 10.0989 6.72064 9.79395 6.43934C9.48899 6.15804 9.07539 6 8.64412 6V7C8.78787 7 8.92574 7.05268 9.02739 7.14645C9.12904 7.24021 9.18615 7.36739 9.18615 7.5H10.2702ZM8.64412 11C9.07539 11 9.48899 10.842 9.79395 10.5607C10.0989 10.2794 10.2702 9.89782 10.2702 9.5H9.18615C9.18615 9.63261 9.12904 9.75979 9.02739 9.85355C8.92574 9.94732 8.78787 10 8.64412 10V11ZM11.3543 6V11H12.4384V6H11.3543ZM11.8963 7H14.6065V6H11.8963V7ZM11.8963 9H13.5224V8H11.8963V9ZM2.68173 5V1.5H1.59766V5H2.68173ZM14.6065 3.5V5H15.6906V3.5H14.6065ZM3.22376 1H11.8963V0H3.22376V1ZM11.5126 0.854L14.7648 3.854L15.5323 3.146L12.2801 0.146L11.5126 0.854ZM2.68173 1.5C2.68173 1.36739 2.73883 1.24021 2.84049 1.14645C2.94214 1.05268 3.08001 1 3.22376 1V0C2.79249 0 2.37889 0.158035 2.07393 0.43934C1.76898 0.720644 1.59766 1.10218 1.59766 1.5H2.68173ZM1.59766 12V13.5H2.68173V12H1.59766ZM3.22376 15H14.0645V14H3.22376V15ZM15.6906 13.5V12H14.6065V13.5H15.6906ZM14.0645 15C14.4957 15 14.9093 14.842 15.2143 14.5607C15.5193 14.2794 15.6906 13.8978 15.6906 13.5H14.6065C14.6065 13.6326 14.5494 13.7598 14.4477 13.8536C14.3461 13.9473 14.2082 14 14.0645 14V15ZM1.59766 13.5C1.59766 13.8978 1.76898 14.2794 2.07393 14.5607C2.37889 14.842 2.79249 15 3.22376 15V14C3.08001 14 2.94214 13.9473 2.84049 13.8536C2.73883 13.7598 2.68173 13.6326 2.68173 13.5H1.59766Z" fill="black"/>
</svg>
