<svg width="80" height="80" viewBox="0 0 80 80" fill="none" xmlns="http://www.w3.org/2000/svg">
<path d="M70 47.5H37.075L43.525 41.025L40 37.5L27.5 50L40 62.5L43.525 58.975L37.075 52.5H70V47.5Z" fill="black"/>
<path d="M60 35V25C60.0019 24.671 59.9388 24.3448 59.8144 24.0402C59.69 23.7357 59.5067 23.4586 59.275 23.225L41.775 5.72501C41.5414 5.49331 41.2644 5.30999 40.9598 5.18558C40.6552 5.06117 40.329 4.99811 40 5.00001H15C13.6739 5.00001 12.4021 5.5268 11.4645 6.46448C10.5268 7.40216 10 8.67393 10 10V70C10 71.3261 10.5268 72.5979 11.4645 73.5355C12.4021 74.4732 13.6739 75 15 75H55C56.3261 75 57.5979 74.4732 58.5355 73.5355C59.4732 72.5979 60 71.3261 60 70V65H55V70H15V10H35V25C35 26.3261 35.5268 27.5979 36.4645 28.5355C37.4021 29.4732 38.6739 30 40 30H55V35H60ZM40 25V11.025L53.975 25H40Z" fill="black"/>
</svg>
