<svg width="80" height="80" viewBox="0 0 80 80" fill="none" xmlns="http://www.w3.org/2000/svg">
<path d="M66.6667 45V9.99999C66.6667 9.11593 66.3155 8.26809 65.6904 7.64297C65.0652 7.01785 64.2174 6.66666 63.3333 6.66666H16.6667C15.7826 6.66666 14.9348 7.01785 14.3097 7.64297C13.6845 8.26809 13.3333 9.11593 13.3333 9.99999V70C13.3333 70.884 13.6845 71.7319 14.3097 72.357C14.9348 72.9821 15.7826 73.3333 16.6667 73.3333H35M28.3333 20H51.6667M28.3333 33.3333H51.6667M28.3333 46.6667H38.3333" stroke="black" stroke-width="4" stroke-linecap="round" stroke-linejoin="round"/>
<path d="M65 73.3333L59.225 67.5583M59.225 67.5583C60.0149 66.7881 60.6439 65.8687 61.0757 64.8535C61.5075 63.8383 61.7334 62.7474 61.7403 61.6442C61.7472 60.541 61.535 59.4474 61.116 58.4268C60.697 57.4062 60.0795 56.479 59.2993 55.699C58.5191 54.9189 57.5919 54.3016 56.5712 53.8827C55.5506 53.4638 54.457 53.2517 53.3538 53.2588C52.2506 53.2659 51.1597 53.4919 50.1446 53.9239C49.1294 54.3558 48.2101 54.985 47.44 55.775C45.8887 57.3403 45.0207 59.4565 45.0258 61.6603C45.0309 63.8641 45.9088 65.9761 47.4674 67.5342C49.026 69.0924 51.1382 69.9697 53.3421 69.9742C55.5459 69.9787 57.6601 69.11 59.225 67.5583Z" stroke="black" stroke-width="4" stroke-linecap="round" stroke-linejoin="round"/>
</svg>
