<svg width="32" height="32" viewBox="0 0 32 32" fill="none" xmlns="http://www.w3.org/2000/svg">
<g clip-path="url(#clip0_168_20)">
<path d="M5 17.336H33V14.224H5V17.336ZM5 23.56H33V20.448H5V23.56ZM5 8V11.112H33V8H5Z" fill="black"/>
<path d="M1.99432 24.0597C1.65057 24.0597 1.34517 24.0007 1.07812 23.8828C0.8125 23.7635 0.603693 23.5994 0.451705 23.3906C0.299716 23.1818 0.223011 22.9418 0.221591 22.6705H1.41477C1.41619 22.7543 1.44176 22.8295 1.49148 22.8963C1.54261 22.9616 1.61222 23.0128 1.70028 23.0497C1.78835 23.0866 1.8892 23.1051 2.00284 23.1051C2.11222 23.1051 2.20881 23.0859 2.29261 23.0476C2.37642 23.0078 2.44176 22.9531 2.48864 22.8835C2.53551 22.8139 2.55824 22.7344 2.55682 22.6449C2.55824 22.5568 2.53125 22.4787 2.47585 22.4105C2.42188 22.3423 2.34588 22.2891 2.24787 22.2507C2.14986 22.2124 2.03693 22.1932 1.90909 22.1932H1.46591V21.375H1.90909C2.02699 21.375 2.13068 21.3558 2.22017 21.3175C2.31108 21.2791 2.38139 21.2259 2.43111 21.1577C2.48224 21.0895 2.5071 21.0114 2.50568 20.9233C2.5071 20.8381 2.48651 20.7628 2.44389 20.6974C2.40128 20.6321 2.34162 20.581 2.26491 20.544C2.18963 20.5071 2.10227 20.4886 2.00284 20.4886C1.89489 20.4886 1.7983 20.5078 1.71307 20.5462C1.62926 20.5845 1.56321 20.6378 1.51491 20.706C1.46662 20.7741 1.44176 20.8523 1.44034 20.9403H0.306818C0.308239 20.6733 0.381392 20.4375 0.526278 20.233C0.672585 20.0284 0.872869 19.8679 1.12713 19.7514C1.38139 19.6349 1.6733 19.5767 2.00284 19.5767C2.32528 19.5767 2.61009 19.6314 2.85724 19.7408C3.10582 19.8501 3.29972 20.0007 3.43892 20.1925C3.57955 20.3828 3.64915 20.6009 3.64773 20.8466C3.65057 21.0909 3.56676 21.2912 3.39631 21.4474C3.22727 21.6037 3.01278 21.696 2.75284 21.7244V21.7585C3.10511 21.7969 3.37003 21.9048 3.54759 22.0824C3.72514 22.2585 3.8125 22.4801 3.80966 22.7472C3.81108 23.0028 3.73438 23.2294 3.57955 23.4268C3.42614 23.6243 3.21236 23.7791 2.93821 23.8913C2.66548 24.0036 2.35085 24.0597 1.99432 24.0597Z" fill="#070707"/>
<path d="M0.289773 18V17.1477L1.91761 15.8011C2.02557 15.7116 2.1179 15.6278 2.1946 15.5497C2.27273 15.4702 2.33239 15.3885 2.37358 15.3047C2.41619 15.2209 2.4375 15.1278 2.4375 15.0256C2.4375 14.9134 2.41335 14.8175 2.36506 14.7379C2.31818 14.6584 2.25284 14.5973 2.16903 14.5547C2.08523 14.5107 1.98864 14.4886 1.87926 14.4886C1.76989 14.4886 1.6733 14.5107 1.58949 14.5547C1.5071 14.5987 1.44318 14.6634 1.39773 14.7486C1.35227 14.8338 1.32955 14.9375 1.32955 15.0597H0.204545C0.204545 14.7528 0.273438 14.4886 0.411222 14.267C0.549006 14.0455 0.743608 13.875 0.995028 13.7557C1.24645 13.6364 1.54119 13.5767 1.87926 13.5767C2.22869 13.5767 2.53125 13.6328 2.78693 13.745C3.04403 13.8558 3.24219 14.0121 3.38139 14.2138C3.52202 14.4155 3.59233 14.652 3.59233 14.9233C3.59233 15.0909 3.55753 15.2578 3.48793 15.424C3.41832 15.5888 3.29332 15.7713 3.11293 15.9716C2.93253 16.1719 2.67614 16.4105 2.34375 16.6875L1.93466 17.0284V17.054H3.6392V18H0.289773Z" fill="#070707"/>
<path d="M2.42898 6.63636V11H1.24432V7.72727H1.21875L0.264205 8.2983V7.29261L1.33807 6.63636H2.42898Z" fill="#070707"/>
</g>
<defs>
<clipPath id="clip0_168_20">
<rect width="32" height="32" fill="white"/>
</clipPath>
</defs>
</svg>
