<svg width="32" height="32" viewBox="0 0 32 32" fill="none" xmlns="http://www.w3.org/2000/svg">
<path d="M16 6.38125L12.1594 3.18125C12.0531 3.09375 11.8969 3.10625 11.8062 3.2125C11.7687 3.25625 11.7469 3.3125 11.7469 3.37188V5.08125C11.7469 5.15625 11.7812 5.225 11.8375 5.27188L14.5844 7.5625L11.8406 9.84687C11.7844 9.89375 11.75 9.96563 11.75 10.0375V11.75C11.75 11.8094 11.7719 11.8656 11.8094 11.9094C11.8969 12.0156 12.0563 12.0312 12.1625 11.9406L16 8.74375L19.8406 11.9438C19.9469 12.0313 20.1031 12.0188 20.1938 11.9125C20.2313 11.8688 20.2531 11.8125 20.2531 11.7531V10.0438C20.2531 9.96875 20.2188 9.9 20.1625 9.85312L17.4188 7.56875L20.1625 5.28437C20.2188 5.2375 20.2531 5.16562 20.2531 5.09375V3.375C20.2531 3.31563 20.2313 3.25938 20.1938 3.21563C20.1063 3.10938 19.9469 3.09375 19.8406 3.18438L16 6.38125ZM14.5 15.25V28.25C14.5 28.3875 14.6125 28.5 14.75 28.5H17.25C17.3875 28.5 17.5 28.3875 17.5 28.25V15.25C17.5 15.1125 17.3875 15 17.25 15H14.75C14.6125 15 14.5 15.1125 14.5 15.25ZM20.875 17.875V19.75C20.875 19.8531 20.9594 19.9375 21.0625 19.9375H26.25V27.75C26.25 27.8531 26.3344 27.9375 26.4375 27.9375H28.3125C28.4156 27.9375 28.5 27.8531 28.5 27.75V18.625C28.5 18.1062 28.0813 17.6875 27.5625 17.6875H21.0625C20.9594 17.6875 20.875 17.7719 20.875 17.875ZM5.75 27.75V19.9375H10.9375C11.0406 19.9375 11.125 19.8531 11.125 19.75V17.875C11.125 17.7719 11.0406 17.6875 10.9375 17.6875H4.4375C3.91875 17.6875 3.5 18.1062 3.5 18.625L3.5 27.75C3.5 27.8531 3.58438 27.9375 3.6875 27.9375H5.5625C5.66562 27.9375 5.75 27.8531 5.75 27.75Z" fill="black"/>
</svg>
