<svg width="32" height="32" viewBox="0 0 32 32" fill="none" xmlns="http://www.w3.org/2000/svg">
<path d="M28.4219 27L31.9688 30.5469L30.5469 31.9531L27 28.4062L23.4531 31.9531L22.0469 30.5469L25.5938 27L22.0469 23.4531L23.4688 22.0469L27 25.5781L30.5469 22.0469L31.9531 23.4531L28.4219 27ZM31.9531 27L32 26.9531V27.0469L31.9531 27ZM32 2V20H21.9688L20 21.9688V20H12V26H20V28H0V2H32ZM10 20H2V26H10V20ZM10 12H2V18H10V12ZM10 4H2V10H10V4ZM20 12H12V18H20V12ZM20 4H12V10H20V4ZM30 12H22V18H30V12ZM30 4H22V10H30V4Z" fill="black"/>
</svg>
