<svg width="32" height="32" viewBox="0 0 32 32" fill="none" xmlns="http://www.w3.org/2000/svg">
<path d="M25.6187 16L28.8188 12.1594C28.9063 12.0531 28.8938 11.8969 28.7875 11.8062C28.7438 11.7687 28.6875 11.7469 28.6281 11.7469H26.9188C26.8438 11.7469 26.775 11.7812 26.7281 11.8375L24.4375 14.5844L22.1531 11.8406C22.1063 11.7844 22.0344 11.75 21.9625 11.75H20.25C20.1906 11.75 20.1344 11.7719 20.0906 11.8094C19.9844 11.8969 19.9688 12.0563 20.0594 12.1625L23.2563 16L20.0562 19.8406C19.9687 19.9469 19.9812 20.1031 20.0875 20.1938C20.1312 20.2313 20.1875 20.2531 20.2469 20.2531H21.9562C22.0312 20.2531 22.1 20.2188 22.1469 20.1625L24.4312 17.4188L26.7156 20.1625C26.7625 20.2188 26.8344 20.2531 26.9062 20.2531H28.625C28.6844 20.2531 28.7406 20.2313 28.7844 20.1938C28.8906 20.1063 28.9062 19.9469 28.8156 19.8406L25.6187 16ZM16.75 14.5H3.75C3.6125 14.5 3.5 14.6125 3.5 14.75V17.25C3.5 17.3875 3.6125 17.5 3.75 17.5H16.75C16.8875 17.5 17 17.3875 17 17.25V14.75C17 14.6125 16.8875 14.5 16.75 14.5ZM14.125 20.875H12.25C12.1469 20.875 12.0625 20.9594 12.0625 21.0625V26.25H4.25C4.14688 26.25 4.0625 26.3344 4.0625 26.4375V28.3125C4.0625 28.4156 4.14688 28.5 4.25 28.5H13.375C13.8938 28.5 14.3125 28.0813 14.3125 27.5625V21.0625C14.3125 20.9594 14.2281 20.875 14.125 20.875ZM4.25 5.75H12.0625V10.9375C12.0625 11.0406 12.1469 11.125 12.25 11.125H14.125C14.2281 11.125 14.3125 11.0406 14.3125 10.9375V4.4375C14.3125 3.91875 13.8938 3.5 13.375 3.5H4.25C4.14688 3.5 4.0625 3.58438 4.0625 3.6875V5.5625C4.0625 5.66562 4.14688 5.75 4.25 5.75Z" fill="black"/>
</svg>
