<svg width="32" height="32" viewBox="0 0 32 32" fill="none" xmlns="http://www.w3.org/2000/svg">
<path d="M15 6.99998H11C11 6.99998 11 7.92811 11 7.99998V8.99998H15L15 13H17C17.0375 12.9562 17 9.05936 17 8.99998C17 8.92498 21.0562 9.04686 21 8.99998V6.99998H17C17 7.07186 17.0562 6.95311 17 6.99998V2.99998H15V6.99998ZM17.5 19.9375H26.25V27.75C26.25 27.8531 26.3344 27.9375 26.4375 27.9375H28.3125C28.4156 27.9375 28.5 27.8531 28.5 27.75V18.625C28.5 18.1062 28.0813 17.6875 27.5625 17.6875H17.5V19.9375Z" fill="black"/>
<path d="M21 27.9373V27.7498V19.9373H19V27.9375L21 27.9373Z" fill="black"/>
<path d="M17.5 17.6875H14.5H4.4375C3.91875 17.6875 3.5 18.1062 3.5 18.625L3.5 27.75C3.5 27.8531 3.58438 27.9375 3.6875 27.9375H5.5625C5.66562 27.9375 5.75 27.8531 5.75 27.75V19.9375H11H13H17.5V18.8437V17.6875Z" fill="black"/>
<path d="M13 19.9375H11V27.7498L13 27.7496V19.9375Z" fill="black"/>
</svg>
