<svg width="32" height="32" viewBox="0 0 32 32" fill="none" xmlns="http://www.w3.org/2000/svg">
<path d="M24.9999 15V11C24.9999 11 24.0718 11 23.9999 11H22.9999V15H18.9999V17C19.0436 17.0375 22.9405 17 22.9999 17C23.0749 17 22.953 21.0562 22.9999 21H24.9999V17C24.928 17 25.0468 17.0562 24.9999 17H28.9999V15H24.9999ZM12.0624 17.5V26.25H4.24989C4.14677 26.25 4.06239 26.3344 4.06239 26.4375V28.3125C4.06239 28.4156 4.14677 28.5 4.24989 28.5H13.3749C13.8936 28.5 14.3124 28.0813 14.3124 27.5625V17.5H12.0624Z" fill="black"/>
<path d="M4.06255 21H4.25005H12.0626V19H4.06239L4.06255 21Z" fill="black"/>
<path d="M14.3124 17.5V14.5V4.4375C14.3124 3.91875 13.8936 3.5 13.3749 3.5H4.24989C4.14677 3.5 4.06239 3.58438 4.06239 3.6875V5.5625C4.06239 5.66562 4.14677 5.75 4.24989 5.75H12.0624V11V13V17.5H13.1561H14.3124Z" fill="black"/>
<path d="M12.0624 13V11H4.25008L4.25024 13H12.0624Z" fill="black"/>
</svg>
