<svg width="32" height="32" viewBox="0 0 32 32" fill="none" xmlns="http://www.w3.org/2000/svg">
<path d="M7.0001 17V21C7.0001 21 7.92823 21 8.0001 21H9.0001V17H13.0001V15C12.9564 14.9625 9.05948 15 9.0001 15C8.9251 15 9.04698 10.9438 9.0001 11H7.0001L7.0001 15C7.07198 15 6.95323 14.9438 7.0001 15L3.0001 15V17L7.0001 17ZM19.9376 14.5L19.9376 5.75H27.7501C27.8532 5.75 27.9376 5.66562 27.9376 5.5625V3.6875C27.9376 3.58438 27.8532 3.5 27.7501 3.5H18.6251C18.1064 3.5 17.6876 3.91875 17.6876 4.4375L17.6876 14.5H19.9376Z" fill="black"/>
<path d="M27.9374 11H27.7499H19.9374V13L27.9376 13L27.9374 11Z" fill="black"/>
<path d="M17.6876 14.5V17.5V27.5625C17.6876 28.0813 18.1064 28.5 18.6251 28.5H27.7501C27.8532 28.5 27.9376 28.4156 27.9376 28.3125V26.4375C27.9376 26.3344 27.8532 26.25 27.7501 26.25H19.9376V21V19V14.5H18.8439H17.6876Z" fill="black"/>
<path d="M19.9376 19V21H27.7499L27.7498 19H19.9376Z" fill="black"/>
</svg>
