<svg width="32" height="32" viewBox="0 0 32 32" fill="none" xmlns="http://www.w3.org/2000/svg">
<path d="M17 25L21 25C21 25 21 24.0719 21 24V23L17 23V19H15C14.9625 19.0438 15 22.9406 15 23C15 23.075 10.9438 22.9531 11 23V25H15C15 24.9281 14.9438 25.0469 15 25L15 29H17L17 25ZM14.5 12.0625L5.75 12.0625V4.25001C5.75 4.14689 5.66562 4.06251 5.5625 4.06251H3.6875C3.58438 4.06251 3.5 4.14689 3.5 4.25001V13.375C3.5 13.8938 3.91875 14.3125 4.4375 14.3125L14.5 14.3125V12.0625Z" fill="black"/>
<path d="M11 4.06267V4.25017V12.0627H13L13 4.06251L11 4.06267Z" fill="black"/>
<path d="M14.5 14.3125H17.5L27.5625 14.3125C28.0813 14.3125 28.5 13.8938 28.5 13.375V4.25001C28.5 4.14689 28.4156 4.06251 28.3125 4.06251H26.4375C26.3344 4.06251 26.25 4.14689 26.25 4.25001V12.0625L21 12.0625H19H14.5V13.1563V14.3125Z" fill="black"/>
<path d="M19 12.0625H21V4.2502L19 4.25037V12.0625Z" fill="black"/>
</svg>
