<svg width="17" height="15" viewBox="0 0 17 15" fill="none" xmlns="http://www.w3.org/2000/svg">
<path d="M8.85191 1.875C8.10662 1.875 7.49683 2.4375 7.49683 3.125C7.49683 3.8125 8.10662 4.375 8.85191 4.375C9.59721 4.375 10.207 3.8125 10.207 3.125C10.207 2.4375 9.59721 1.875 8.85191 1.875ZM8.85191 10.625C8.10662 10.625 7.49683 11.1875 7.49683 11.875C7.49683 12.5625 8.10662 13.125 8.85191 13.125C9.59721 13.125 10.207 12.5625 10.207 11.875C10.207 11.1875 9.59721 10.625 8.85191 10.625ZM8.85191 6.25C8.10662 6.25 7.49683 6.8125 7.49683 7.5C7.49683 8.1875 8.10662 8.75 8.85191 8.75C9.59721 8.75 10.207 8.1875 10.207 7.5C10.207 6.8125 9.59721 6.25 8.85191 6.25Z" fill="black"/>
</svg>
