<svg width="32" height="32" viewBox="0 0 32 32" fill="none" xmlns="http://www.w3.org/2000/svg">
<path d="M9.33325 17.3333H27.9999V14.6666H9.33325V17.3333ZM9.33325 22.6666H27.9999V19.9999H9.33325V22.6666ZM9.33325 9.33325V11.9999H27.9999V9.33325H9.33325Z" fill="black"/>
<path d="M1.24148 18V17.2898L2.59801 16.1676C2.68797 16.093 2.76491 16.0232 2.82884 15.9581C2.89394 15.8918 2.94366 15.8237 2.97798 15.7539C3.01349 15.6841 3.03125 15.6065 3.03125 15.5213C3.03125 15.4278 3.01113 15.3479 2.97088 15.2816C2.93182 15.2153 2.87737 15.1644 2.80753 15.1289C2.73769 15.0922 2.6572 15.0739 2.56605 15.0739C2.47491 15.0739 2.39441 15.0922 2.32457 15.1289C2.25592 15.1656 2.20265 15.2195 2.16477 15.2905C2.12689 15.3615 2.10795 15.4479 2.10795 15.5497H1.17045C1.17045 15.294 1.22786 15.0739 1.34268 14.8892C1.4575 14.7045 1.61967 14.5625 1.82919 14.4631C2.03871 14.3636 2.28433 14.3139 2.56605 14.3139C2.85724 14.3139 3.10938 14.3607 3.32244 14.4542C3.5367 14.5465 3.70182 14.6767 3.81783 14.8448C3.93501 15.0129 3.99361 15.21 3.99361 15.4361C3.99361 15.5758 3.96461 15.7148 3.90661 15.8533C3.8486 15.9906 3.74444 16.1428 3.59411 16.3097C3.44377 16.4766 3.23011 16.6754 2.95312 16.9062L2.61222 17.1903V17.2116H4.03267V18H1.24148Z" fill="#070707"/>
<path d="M2.66193 23.0497C2.37547 23.0497 2.12098 23.0006 1.89844 22.9023C1.67708 22.8029 1.50308 22.6662 1.37642 22.4922C1.24976 22.3182 1.18584 22.1181 1.18466 21.892H2.17898C2.18016 21.9619 2.20147 22.0246 2.2429 22.0803C2.28551 22.1347 2.34351 22.1773 2.4169 22.2081C2.49029 22.2389 2.57434 22.2543 2.66903 22.2543C2.76018 22.2543 2.84067 22.2383 2.91051 22.2063C2.98035 22.1732 3.0348 22.1276 3.07386 22.0696C3.11293 22.0116 3.13187 21.9453 3.13068 21.8707C3.13187 21.7973 3.10938 21.7322 3.06321 21.6754C3.01823 21.6186 2.9549 21.5742 2.87322 21.5423C2.79155 21.5103 2.69744 21.4943 2.59091 21.4943H2.22159V20.8125H2.59091C2.68916 20.8125 2.77557 20.7965 2.85014 20.7646C2.9259 20.7326 2.98449 20.6882 3.02592 20.6314C3.06854 20.5746 3.08925 20.5095 3.08807 20.4361C3.08925 20.3651 3.07209 20.3023 3.03658 20.2479C3.00107 20.1934 2.95135 20.1508 2.88743 20.12C2.82469 20.0893 2.75189 20.0739 2.66903 20.0739C2.57907 20.0739 2.49858 20.0898 2.42756 20.1218C2.35772 20.1538 2.30268 20.1982 2.26243 20.255C2.22218 20.3118 2.20147 20.3769 2.20028 20.4503H1.25568C1.25687 20.2277 1.31783 20.0312 1.43857 19.8608C1.56049 19.6903 1.72739 19.5566 1.93928 19.4595C2.15116 19.3625 2.39441 19.3139 2.66903 19.3139C2.93774 19.3139 3.17507 19.3595 3.38104 19.4506C3.58819 19.5418 3.74976 19.6673 3.86577 19.8271C3.98295 19.9857 4.04096 20.1674 4.03977 20.3722C4.04214 20.5758 3.9723 20.7427 3.83026 20.8729C3.68939 21.0031 3.51065 21.08 3.29403 21.1037V21.1321C3.58759 21.1641 3.80836 21.254 3.95632 21.402C4.10429 21.5488 4.17708 21.7334 4.17472 21.956C4.1759 22.169 4.11198 22.3578 3.98295 22.5224C3.85511 22.6869 3.67696 22.8159 3.44851 22.9094C3.22124 23.003 2.95904 23.0497 2.66193 23.0497Z" fill="#070707"/>
<path d="M3.02415 9.36364V13H2.03693V10.2727H2.01562L1.22017 10.7486V9.91051L2.11506 9.36364H3.02415Z" fill="#070707"/>
</svg>
