<?xml version="1.0" encoding="iso-8859-1"?>
<svg version="1.1" id="Capa_1" xmlns="http://www.w3.org/2000/svg" xmlns:xlink="http://www.w3.org/1999/xlink" x="0px" y="0px"
	 height="64" width="64" viewBox="0 0 512 512" style="enable-background:new 0 0 512 512;" xml:space="preserve">
<g>
	<g>
		<path d="M512,79.229v-30h-49.215V0h-30v58.002l-15.379,15.379v-28.11h-30v58.109l-24.582,24.582
			c-39.874-34.852-90.402-53.891-143.86-53.891c-58.487,0-113.475,22.776-154.831,64.134C22.776,179.561,0,234.549,0,293.036
			S22.776,406.51,64.133,447.867S160.477,512,218.964,512s113.475-22.776,154.831-64.133
			c41.357-41.357,64.134-96.344,64.134-154.831c0-53.458-19.039-103.986-53.891-143.861l24.675-24.675h57.908v-30h-27.908
			l15.272-15.271H512z M407.929,293.036c0,104.195-84.77,188.964-188.965,188.964S30,397.231,30,293.036
			s84.769-188.965,188.964-188.965c46.71,0,89.508,17.044,122.523,45.229l-31.533,31.533c-24.862-20.2-56.534-32.327-90.99-32.327
			c-79.694,0-144.53,64.836-144.53,144.53s64.836,144.53,144.53,144.53s144.53-64.836,144.53-144.53
			c0-34.456-12.127-66.129-32.327-90.99l31.533-31.533C390.884,203.528,407.929,246.326,407.929,293.036z M229.018,304.196
			l28.589-28.589c2.409,5.32,3.762,11.218,3.762,17.429c0,23.383-19.022,42.405-42.405,42.405s-42.405-19.022-42.405-42.405
			s19.023-42.405,42.405-42.405c6.211,0,12.109,1.353,17.43,3.763l-28.589,28.589L229.018,304.196z M258.417,232.371
			c-11.359-7.413-24.906-11.74-39.453-11.74c-39.925,0-72.405,32.48-72.405,72.405c0,39.925,32.48,72.405,72.405,72.405
			s72.405-32.48,72.405-72.405c0-14.546-4.327-28.094-11.74-39.453l30.191-30.191c14.838,19.312,23.674,43.463,23.674,69.644
			c0,63.152-51.378,114.53-114.53,114.53s-114.53-51.378-114.53-114.53s51.378-114.53,114.53-114.53
			c26.18,0,50.332,8.836,69.643,23.674L258.417,232.371z" fill="#000000" />
	</g>
</g>
</svg>
