<svg xmlns="http://www.w3.org/2000/svg" enable-background="new 0 0 511.622 511.622" height="64" viewBox="0 0 511.622 511.622" width="64">
    <path fill="#000000" d="m318.429 0c-106.519 0-193.178 86.422-193.178 192.65s86.659 192.65 193.178 192.65 193.178-86.422 193.178-192.65c-.001-106.228-86.66-192.65-193.178-192.65zm0 355.3c-89.977 0-163.178-72.964-163.178-162.65s73.201-162.65 163.178-162.65 163.178 72.965 163.178 162.65-73.202 162.65-163.178 162.65z"/>
    <path fill="#000000" d="m333.429 95.568h-30v112.082h112.326v-30h-82.326z"/>
    <path fill="#000000" d="m8.465 318.174h113.309v30h-113.309z" transform="matrix(.708 -.706 .706 .708 -216.235 143.213)"/>
    <path fill="#000000" d="m-4.615 222.227h104.311v30h-104.311z" transform="matrix(.708 -.706 .706 .708 -153.623 102.802)"/>
    <path fill="#000000" d="m223.006 449.175h104.312v30h-104.312z" transform="matrix(.708 -.706 .706 .708 -247.429 329.747)"/>
    <path fill="#000000" d="m27.154 403.487h132.42v30h-132.42z" transform="matrix(.708 -.706 .706 .708 -268.229 188.056)"/>
    <path fill="#000000" d="m122.275 431.648h113.309v30h-113.309z" transform="matrix(.708 -.706 .706 .708 -263.139 256.687)"/>
</svg>