<svg height="64" viewBox="0 0 512 512" width="64" xmlns="http://www.w3.org/2000/svg"><path d="m322.214844 0h-201.214844v60h-121v360h181v62h-60v30h270v-30h-60v-62h181v-360h-129.785156zm38.785156 81.214844v8.785156h-60v-60h8.785156zm-210-51.214844h120v90h90v210h-210zm-30 60v240h-91v-240zm180 392h-90v-62h90zm-271-92v-30h361 91v30zm452-60h-91v-240h91zm0 0" fill="#000000"/><path d="m181 90h60v30h-60zm0 0"/><path d="m181 150h150v30h-150zm0 0" fill="#000000"/><path d="m181 210h150v30h-150zm0 0" fill="#000000"/><path d="m181 270h150v30h-150zm0 0" fill="#000000"/></svg>