<svg enable-background="new 0 0 510.001 510.001" height="64" viewBox="0 0 510.001 510.001" width="64" xmlns="http://www.w3.org/2000/svg"><g fill="#000000"><path d="m60 232.504h30v30h-30z"/><path d="m501.962 277.505c5.235-9.057 8.038-19.38 8.038-30.001 0-33.084-26.916-60-60-60h-82.983c12.235-30.135 22.983-57.033 22.983-90v-15c0-33.936-27.23-60.584-60.221-59.998-32.75.482-59.566 27.219-59.779 59.602-.209 32.069-4.995 44.18-25.606 64.79l-55.607 55.607h-38.787v-45h-150v330h150v-32h53.768c21.498 20.412 50.322 32 80.096 32h151.136c33.084 0 60-26.916 60-60 0-5.951-.892-11.862-2.619-17.521 19.57-19.456 22.947-49.36 9.581-72.479 10.718-18.54 10.72-41.458 0-60zm-381.962 179.999h-90v-270h90zm352.355-169.995c4.93 5.506 7.645 12.608 7.645 19.995 0 7.389-2.714 14.489-7.643 19.994l-8.958 10.005 8.956 10.006c12.241 13.672 9.505 35.218-6.229 45.284l-11.954 7.646 6.973 12.359c2.523 4.471 3.856 9.556 3.856 14.705 0 16.542-13.458 30-30 30h-151.138c-23.746 0-46.68-9.936-62.92-27.259l-4.444-4.741h-66.499v-193h51.213l64.394-64.394c26.417-26.415 34.131-45.662 34.394-85.807.105-16.188 13.663-29.558 30.22-29.802 16.389-.285 29.779 12.932 29.779 30.004v15c0 35.386-15.517 63.454-29.055 99.759l-7.548 20.241h126.603c16.542 0 30 13.458 30 30 0 7.389-2.714 14.489-7.643 19.994l-8.958 10.005z"/></g></svg>