<svg enable-background="new 0 0 510 510" height="64" viewBox="0 0 510 510" width="64" xmlns="http://www.w3.org/2000/svg"><path d="m439.965 120.162c-20.583-43.588-68.581-67.842-116.275-57.993-24.717-38.632-67.251-62.169-113.69-62.169-57.798 0-108.652 36.598-127.427 90.304-46.163 3.79-82.573 42.572-82.573 89.696 0 49.626 40.374 90 90 90h60v30h-45v210h300v-210h-45v-30h75c41.355 0 75-33.645 75-75 0-39.686-30.986-72.272-70.035-74.838zm-304.965 359.838v-60h77.58c6.192 17.459 22.865 30 42.42 30s36.227-12.541 42.42-30h77.58v60zm105-75c0-8.272 6.729-15 15-15s15 6.728 15 15-6.729 15-15 15-15-6.728-15-15zm135-75v60h-77.58c-6.192-17.459-22.865-30-42.42-30s-36.228 12.541-42.42 30h-77.58v-60zm-105-30h-30v-45c0-8.271 6.729-15 15-15s15 6.729 15 15zm60 0h-30v-45c0-24.814-20.186-45-45-45-24.813 0-45 20.186-45 45v45h-30c0-14.05 0-30.905 0-45 0-41.355 33.645-75 75-75s75 33.645 75 75zm105-60h-76.068c-8.015-55.782-59.151-95.529-115.315-89.381-47.111 5.075-85.71 41.785-92.548 89.381h-61.069c-33.084 0-60-26.916-60-60s26.916-60 60-60c2.488 0 3.252.108 15.245.681l3.042-11.859c11.904-46.409 53.73-78.822 101.713-78.822 39.291 0 74.993 21.669 93.174 56.551l5.915 11.35 12.139-4.055c38.617-12.898 80.967 7.53 94.567 46.342l3.838 10.95c10.683-.855 12.585-1.138 15.367-1.138 24.813 0 45 20.186 45 45s-20.187 45-45 45z" fill="#000000"/></svg>