<svg width="27" height="24" viewBox="0 0 27 24" fill="none" xmlns="http://www.w3.org/2000/svg">
<path d="M7.42081 10H5.77308L8.28374 2.72727H10.2653L12.7724 10H11.1246L9.30291 4.3892H9.24609L7.42081 10ZM7.31783 7.14134H11.2099V8.34162H7.31783V7.14134ZM6.08913 22V21.0874L9.71839 15.995H6.08203V14.7273H11.6502V15.6399L8.0174 20.7322H11.6573V22H6.08913Z" fill="black"/>
<path d="M18.8985 4.64645C18.7032 4.45119 18.3866 4.45119 18.1914 4.64645L15.0094 7.82843C14.8141 8.02369 14.8141 8.34027 15.0094 8.53553C15.2047 8.7308 15.5212 8.7308 15.7165 8.53553L18.5449 5.70711L21.3733 8.53553C21.5686 8.7308 21.8852 8.7308 22.0805 8.53553C22.2757 8.34027 22.2757 8.02369 22.0805 7.82843L18.8985 4.64645ZM19.0449 22L19.0449 5H18.0449L18.0449 22H19.0449Z" fill="black"/>
</svg>
