<svg width="32" height="32" viewBox="0 0 32 32" fill="none" xmlns="http://www.w3.org/2000/svg">
<g clip-path="url(#clip0_230_16)">
<path fill-rule="evenodd" clip-rule="evenodd" d="M26.6667 5.33337C27.374 5.33337 28.0523 5.61433 28.5524 6.11442C29.0525 6.61452 29.3334 7.2928 29.3334 8.00004V24C29.3334 24.7073 29.0525 25.3856 28.5524 25.8857C28.0523 26.3858 27.374 26.6667 26.6667 26.6667H5.33341C4.62617 26.6667 3.94789 26.3858 3.4478 25.8857C2.9477 25.3856 2.66675 24.7073 2.66675 24V8.00004C2.66675 7.2928 2.9477 6.61452 3.4478 6.11442C3.94789 5.61433 4.62617 5.33337 5.33341 5.33337H26.6667ZM10.6667 20H5.33341V24H10.6667V20ZM18.6667 20H13.3334V24H18.6667V20ZM26.6667 20H21.3334V24H26.6667V20ZM18.6667 14.6667H13.3334V17.3334H18.6667V14.6667ZM10.6667 14.6667H5.33341V17.3334H10.6667V14.6667ZM26.6667 14.6667H21.3334V17.3334H26.6667V14.6667ZM18.6667 8.00004H13.3334V12H18.6667V8.00004ZM10.6667 8.00004H5.33341V12H10.6667V8.00004ZM26.6667 8.00004H21.3334V12H26.6667V8.00004Z" fill="black"/>
</g>
<defs>
<clipPath id="clip0_230_16">
<rect width="32" height="32" fill="white"/>
</clipPath>
</defs>
</svg>
