<svg width="32" height="24" viewBox="0 0 32 24" fill="none" xmlns="http://www.w3.org/2000/svg">
<path d="M22.5265 4.54545H18.1793V2H16.5984V4.54545H7.11362V2H5.53282V4.54545H1.1856C0.871274 4.54579 0.569924 4.66083 0.34766 4.86535C0.125395 5.06986 0.000366077 5.34714 0 5.63636V20.9091C0.000366077 21.1983 0.125395 21.4756 0.34766 21.6801C0.569924 21.8846 0.871274 21.9997 1.1856 22H22.5265C22.8408 21.9997 23.1421 21.8846 23.3644 21.6801C23.5867 21.4756 23.7117 21.1983 23.7121 20.9091V5.63636C23.7117 5.34714 23.5867 5.06986 23.3644 4.86535C23.1421 4.66083 22.8408 4.54579 22.5265 4.54545ZM22.1313 20.5455H1.5808V6H5.53282V7.81818H7.11362V6H16.5984V7.81818H18.1793V6H22.1313V20.5455Z" fill="black"/>
<path d="M4.31128 10H5.86813V11.4545H4.31128V10ZM8.59262 10H10.1495V11.4545H8.59262V10ZM12.4848 10H14.0416V11.4545H12.4848V10ZM16.7661 10H18.323V11.4545H16.7661V10ZM4.31128 13.2727H5.86813V14.7273H4.31128V13.2727ZM8.59262 13.2727H10.1495V14.7273H8.59262V13.2727ZM12.4848 13.2727H14.0416V14.7273H12.4848V13.2727ZM16.7661 13.2727H18.323V14.7273H16.7661V13.2727ZM4.31128 16.5455H5.86813V18H4.31128V16.5455ZM8.59262 16.5455H10.1495V18H8.59262V16.5455ZM12.4848 16.5455H14.0416V18H12.4848V16.5455ZM16.7661 16.5455H18.323V18H16.7661V16.5455Z" fill="black"/>
<path d="M27.6696 21.3536C27.8649 21.5488 28.1815 21.5488 28.3767 21.3536L31.5587 18.1716C31.754 17.9763 31.754 17.6597 31.5587 17.4645C31.3635 17.2692 31.0469 17.2692 30.8516 17.4645L28.0232 20.2929L25.1948 17.4645C24.9995 17.2692 24.6829 17.2692 24.4877 17.4645C24.2924 17.6597 24.2924 17.9763 24.4877 18.1716L27.6696 21.3536ZM27.5232 4L27.5232 21H28.5232L28.5232 4H27.5232Z" fill="black"/>
</svg>
