<svg width="27" height="24" viewBox="0 0 27 24" fill="none" xmlns="http://www.w3.org/2000/svg">
<path d="M7.33683 10H5.6891L8.19975 2.72727H10.1813L12.6884 10H11.0407L9.21893 4.3892H9.16211L7.33683 10ZM7.23384 7.14134H11.1259V8.34162H7.23384V7.14134ZM6.00515 22V21.0874L9.63441 15.995H5.99805V14.7273H11.5662V15.6399L7.93342 20.7322H11.5733V22H6.00515Z" fill="black"/>
<path d="M18.1074 21.3536C18.3026 21.5488 18.6192 21.5488 18.8145 21.3536L21.9965 18.1716C22.1917 17.9763 22.1917 17.6597 21.9965 17.4645C21.8012 17.2692 21.4846 17.2692 21.2894 17.4645L18.4609 20.2929L15.6325 17.4645C15.4372 17.2692 15.1207 17.2692 14.9254 17.4645C14.7301 17.6597 14.7301 17.9763 14.9254 18.1716L18.1074 21.3536ZM17.9609 5L17.9609 21L18.9609 21L18.9609 5L17.9609 5Z" fill="black"/>
</svg>
