<svg width="32" height="32" viewBox="0 0 32 32" fill="none" xmlns="http://www.w3.org/2000/svg">
<path d="M25.3333 20V17.3333H6.66667V20H25.3333ZM25.3333 14.6667V12H6.66667V14.6667H25.3333ZM25.3333 9.33334V6.66667H6.66667V9.33334H25.3333ZM6.66667 28C5.93334 28 5.30534 27.7387 4.78267 27.216C4.26 26.6933 3.99911 26.0658 4 25.3333V6.66667C4 5.93334 4.26134 5.30534 4.784 4.78267C5.30667 4.26 5.93422 3.99911 6.66667 4H25.3333C26.0667 4 26.6947 4.26134 27.2173 4.784C27.74 5.30667 28.0009 5.93422 28 6.66667V25.3333C28 26.0667 27.7387 26.6947 27.216 27.2173C26.6933 27.74 26.0658 28.0009 25.3333 28H6.66667ZM25.3333 25.3333V22.6667H6.66667V25.3333H25.3333Z" fill="black"/>
</svg>
