<svg width="33" height="21" viewBox="0 0 33 21" fill="none" xmlns="http://www.w3.org/2000/svg">
<path d="M23.021 2.625H18.7355V0H17.1771V2.625H7.82704V0H6.26868V2.625H1.98322C1.67335 2.62535 1.37628 2.74399 1.15717 2.95489C0.938067 3.16579 0.814814 3.45174 0.814453 3.75V19.5C0.814814 19.7983 0.938067 20.0842 1.15717 20.2951C1.37628 20.506 1.67335 20.6247 1.98322 20.625H23.021C23.3308 20.6247 23.6279 20.506 23.847 20.2951C24.0661 20.0842 24.1894 19.7983 24.1897 19.5V3.75C24.1894 3.45174 24.0661 3.16579 23.847 2.95489C23.6279 2.74399 23.3308 2.62535 23.021 2.625ZM22.6314 19.125H2.3728V4.125H6.26868V6H7.82704V4.125H17.1771V6H18.7355V4.125H22.6314V19.125Z" fill="black"/>
<path d="M5.48926 8.625H7.04761V10.125H5.48926V8.625ZM9.77472 8.625H11.3331V10.125H9.77472V8.625ZM13.6706 8.625H15.229V10.125H13.6706V8.625ZM17.9561 8.625H19.5144V10.125H17.9561V8.625ZM5.48926 12H7.04761V13.5H5.48926V12ZM9.77472 12H11.3331V13.5H9.77472V12ZM13.6706 12H15.229V13.5H13.6706V12ZM17.9561 12H19.5144V13.5H17.9561V12ZM5.48926 15.375H7.04761V16.875H5.48926V15.375ZM9.77472 15.375H11.3331V16.875H9.77472V15.375ZM13.6706 15.375H15.229V16.875H13.6706V15.375ZM17.9561 15.375H19.5144V16.875H17.9561V15.375Z" fill="black"/>
<path d="M29.3536 2.64645C29.1583 2.45119 28.8417 2.45119 28.6464 2.64645L25.4645 5.82843C25.2692 6.02369 25.2692 6.34027 25.4645 6.53553C25.6597 6.7308 25.9763 6.7308 26.1716 6.53553L29 3.70711L31.8284 6.53553C32.0237 6.7308 32.3403 6.7308 32.5355 6.53553C32.7308 6.34027 32.7308 6.02369 32.5355 5.82843L29.3536 2.64645ZM29.5 20L29.5 3H28.5L28.5 20H29.5Z" fill="black"/>
</svg>
