<svg width="33" height="24" viewBox="0 0 33 24" fill="none" xmlns="http://www.w3.org/2000/svg">
<path d="M23.4715 4.54545H19.0991V2H17.5091V4.54545H7.96932V2H6.37935V4.54545H2.00693C1.69078 4.54579 1.38768 4.66083 1.16413 4.86535C0.940575 5.06986 0.814821 5.34714 0.814453 5.63636V20.9091C0.814821 21.1983 0.940575 21.4756 1.16413 21.6801C1.38768 21.8846 1.69078 21.9997 2.00693 22H23.4715C23.7877 21.9997 24.0908 21.8846 24.3143 21.6801C24.5379 21.4756 24.6636 21.1983 24.664 20.9091V5.63636C24.6636 5.34714 24.5379 5.06986 24.3143 4.86535C24.0908 4.66083 23.7877 4.54579 23.4715 4.54545ZM23.074 20.5455H2.40442V6H6.37935V7.81818H7.96932V6H17.5091V7.81818H19.0991V6H23.074V20.5455Z" fill="black"/>
<path d="M5.15039 10H6.71627V11.4545H5.15039V10ZM9.45656 10H11.0224V11.4545H9.45656V10ZM13.3713 10H14.9371V11.4545H13.3713V10ZM17.6774 10H19.2433V11.4545H17.6774V10ZM5.15039 13.2727H6.71627V14.7273H5.15039V13.2727ZM9.45656 13.2727H11.0224V14.7273H9.45656V13.2727ZM13.3713 13.2727H14.9371V14.7273H13.3713V13.2727ZM17.6774 13.2727H19.2433V14.7273H17.6774V13.2727ZM5.15039 16.5455H6.71627V18H5.15039V16.5455ZM9.45656 16.5455H11.0224V18H9.45656V16.5455ZM13.3713 16.5455H14.9371V18H13.3713V16.5455ZM17.6774 16.5455H19.2433V18H17.6774V16.5455Z" fill="black"/>
<path d="M28.6464 21.3536C28.8417 21.5488 29.1583 21.5488 29.3536 21.3536L32.5355 18.1716C32.7308 17.9763 32.7308 17.6597 32.5355 17.4645C32.3403 17.2692 32.0237 17.2692 31.8284 17.4645L29 20.2929L26.1716 17.4645C25.9763 17.2692 25.6597 17.2692 25.4645 17.4645C25.2692 17.6597 25.2692 17.9763 25.4645 18.1716L28.6464 21.3536ZM28.5 4L28.5 21H29.5L29.5 4H28.5Z" fill="black"/>
</svg>
