<svg width="32" height="32" viewBox="0 0 32 32" fill="none" xmlns="http://www.w3.org/2000/svg">
<rect width="32" height="32" fill="#070707"/>
<path d="M25.2222 21.5556H28.5556L24.1111 26L19.6667 21.5556H23V6H25.2222V21.5556ZM10.7778 20.4444H14.1111V17.1111H10.7778V20.4444ZM16.3333 8.22222H15.2222V6H13V8.22222H8.55556V6H6.33333V8.22222H5.22222C3.98889 8.22222 3 9.21111 3 10.4444V22.6667C3 23.9 3.98889 24.8889 5.22222 24.8889H16.3333C17.5667 24.8889 18.5556 23.9 18.5556 22.6667V10.4444C18.5556 9.21111 17.5667 8.22222 16.3333 8.22222ZM5.22222 22.6667V14.8889H16.3333V22.6667H5.22222Z" fill="white"/>
</svg>
