<svg width="32" height="24" viewBox="0 0 32 24" fill="none" xmlns="http://www.w3.org/2000/svg">
<path d="M22.6571 4.54545H18.2847V2H16.6947V4.54545H7.15487V2H5.5649V4.54545H1.19248C0.876326 4.54579 0.573229 4.66083 0.349675 4.86535C0.126122 5.06986 0.0003682 5.34714 0 5.63636V20.9091C0.0003682 21.1983 0.126122 21.4756 0.349675 21.6801C0.573229 21.8846 0.876326 21.9997 1.19248 22H22.6571C22.9732 21.9997 23.2763 21.8846 23.4999 21.6801C23.7234 21.4756 23.8492 21.1983 23.8496 20.9091V5.63636C23.8492 5.34714 23.7234 5.06986 23.4999 4.86535C23.2763 4.66083 22.9732 4.54579 22.6571 4.54545ZM22.2596 20.5455H1.58997V6H5.5649V7.81818H7.15487V6H16.6947V7.81818H18.2847V6H22.2596V20.5455Z" fill="black"/>
<path d="M4.33618 10H5.90206V11.4545H4.33618V10ZM8.64235 10H10.2082V11.4545H8.64235V10ZM12.5571 10H14.1229V11.4545H12.5571V10ZM16.8632 10H18.4291V11.4545H16.8632V10ZM4.33618 13.2727H5.90206V14.7273H4.33618V13.2727ZM8.64235 13.2727H10.2082V14.7273H8.64235V13.2727ZM12.5571 13.2727H14.1229V14.7273H12.5571V13.2727ZM16.8632 13.2727H18.4291V14.7273H16.8632V13.2727ZM4.33618 16.5455H5.90206V18H4.33618V16.5455ZM8.64235 16.5455H10.2082V18H8.64235V16.5455ZM12.5571 16.5455H14.1229V18H12.5571V16.5455ZM16.8632 16.5455H18.4291V18H16.8632V16.5455Z" fill="black"/>
<path d="M28.5393 3.64645C28.3441 3.45118 28.0275 3.45118 27.8322 3.64645L24.6503 6.82843C24.455 7.02369 24.455 7.34027 24.6503 7.53553C24.8455 7.7308 25.1621 7.7308 25.3574 7.53553L28.1858 4.70711L31.0142 7.53553C31.2095 7.7308 31.5261 7.7308 31.7213 7.53553C31.9166 7.34027 31.9166 7.02369 31.7213 6.82843L28.5393 3.64645ZM28.6858 21L28.6858 4H27.6858L27.6858 21H28.6858Z" fill="black"/>
</svg>
