<svg width="32" height="32" viewBox="0 0 32 32" fill="none" xmlns="http://www.w3.org/2000/svg">
<rect width="32" height="32" fill="black"/>
<path d="M25.3333 9.33333H21.3333L26.6666 4L31.9999 9.33333H27.9999V28H25.3333V9.33333ZM10.6666 21.3333H14.6666V17.3333H10.6666V21.3333ZM17.3333 6.66667H15.9999V4H13.3333V6.66667H7.99992V4H5.33325V6.66667H3.99992C2.51992 6.66667 1.33325 7.85333 1.33325 9.33333V24C1.33325 25.48 2.51992 26.6667 3.99992 26.6667H17.3333C18.8133 26.6667 19.9999 25.48 19.9999 24V9.33333C19.9999 7.85333 18.8133 6.66667 17.3333 6.66667ZM3.99992 24V14.6667H17.3333V24H3.99992Z" fill="white"/>
</svg>
